<?xml version="1.0" encoding="utf-8"?>
<!-- Generator: Circuit Diagram, cdlibrary.dll 4.0.0.0 -->
<!DOCTYPE svg PUBLIC "-//W3C//DTD SVG 1.1//EN" "http://www.w3.org/Graphics/SVG/1.1/DTD/svg11.dtd">
<svg version="1.1" width="680" height="400" xmlns="http://www.w3.org/2000/svg">
	<line x1="610" y1="330" x2="640" y2="330" style="stroke:rgb(0, 0, 0);stroke-linecap:square;stroke-width:2" />
	<line x1="610" y1="280" x2="640" y2="280" style="stroke:rgb(0, 0, 0);stroke-linecap:square;stroke-width:2" />
	<line x1="610" y1="330" x2="610" y2="280" style="stroke:rgb(0, 0, 0);stroke-linecap:square;stroke-width:2" />
	<path d="M 610,298 M 602,298 L 618,298 M 610,298 L 618,313 L 602,313 L 610,298" style="fill-opacity:0;fill:rgb(0, 0, 0);stroke:rgb(0, 0, 0);stroke-linecap:square;stroke-width:2" />
	<line x1="640" y1="250" x2="640" y2="292" style="stroke:rgb(0, 0, 0);stroke-linecap:square;stroke-width:2" />
	<line x1="640" y1="318" x2="640" y2="360" style="stroke:rgb(0, 0, 0);stroke-linecap:square;stroke-width:2" />
	<ellipse cx="640" cy="305" rx="12" ry="12" style="fill-opacity:0;fill:rgb(0, 0, 0);stroke:rgb(0, 0, 0);stroke-width:2" />
	<text x="640" y="305" style="font-family:Arial;font-size:12px;text-anchor:middle" dominant-baseline="middle" transform="rotate(0, 640, 305)">M</text>
	<line x1="20" y1="30" x2="20" y2="360" style="stroke:rgb(0, 0, 0);stroke-linecap:square;stroke-width:2" />
	<line x1="20" y1="360" x2="50" y2="360" style="stroke:rgb(0, 0, 0);stroke-linecap:square;stroke-width:2" />
	<line x1="60" y1="360" x2="49" y2="360" style="stroke:rgb(0, 0, 0);stroke-linecap:square;stroke-width:2" />
	<ellipse cx="65" cy="360" rx="16" ry="16" style="fill-opacity:0;fill:rgb(0, 0, 0);stroke:rgb(0, 0, 0);stroke-width:2" />
	<line x1="81" y1="360" x2="70" y2="360" style="stroke:rgb(0, 0, 0);stroke-linecap:square;stroke-width:2" />
	<path d="M 65,360 M 55,360 L 63,360 M 59,356 L 59,364 M 69,360 L 77,360" style="fill-opacity:0;fill:rgb(0, 0, 0);stroke:rgb(0, 0, 0);stroke-linecap:square;stroke-width:2" />
	<line x1="230" y1="330" x2="230" y2="360" style="stroke:rgb(0, 0, 0);stroke-linecap:square;stroke-width:2" />
	<line x1="230" y1="210" x2="230" y2="280" style="stroke:rgb(0, 0, 0);stroke-linecap:square;stroke-width:2" />
	<line x1="230" y1="210" x2="250" y2="210" style="stroke:rgb(0, 0, 0);stroke-linecap:square;stroke-width:2" />
	<line x1="230" y1="280" x2="230" y2="301" style="stroke:rgb(0, 0, 0);stroke-linecap:square;stroke-width:2" />
	<line x1="230" y1="309" x2="230" y2="330" style="stroke:rgb(0, 0, 0);stroke-linecap:square;stroke-width:2" />
	<line x1="216" y1="301" x2="244" y2="301" style="stroke:rgb(0, 0, 0);stroke-linecap:square;stroke-width:2" />
	<path d="M 230,309 M 243.5,311 A 25,15 0 0 0 216.5,311" style="fill-opacity:0;fill:rgb(0, 0, 0);stroke:rgb(0, 0, 0);stroke-linecap:square;stroke-width:2" />
	<path d="M 230,298 M 242,290 L 242,296 M 245,293 L 239,293" style="fill-opacity:0;fill:rgb(0, 0, 0);stroke:rgb(0, 0, 0);stroke-linecap:square;stroke-width:2" />
	<text x="210" y="305" style="font-family:Arial;font-size:11px;text-anchor:end" dominant-baseline="middle" transform="rotate(0, 210, 305)">100 µF</text>
	<line x1="370" y1="310" x2="370" y2="331" style="stroke:rgb(0, 0, 0);stroke-linecap:square;stroke-width:2" />
	<line x1="370" y1="339" x2="370" y2="360" style="stroke:rgb(0, 0, 0);stroke-linecap:square;stroke-width:2" />
	<line x1="356" y1="331" x2="384" y2="331" style="stroke:rgb(0, 0, 0);stroke-linecap:square;stroke-width:2" />
	<line x1="356" y1="339" x2="384" y2="339" style="stroke:rgb(0, 0, 0);stroke-linecap:square;stroke-width:2" />
	<text x="350" y="335" style="font-family:Arial;font-size:11px;text-anchor:end" dominant-baseline="middle" transform="rotate(0, 350, 335)">10 nF</text>
	<line x1="310" y1="310" x2="310" y2="360" style="stroke:rgb(0, 0, 0);stroke-linecap:square;stroke-width:2" />
	<line x1="640" y1="230" x2="640" y2="250" style="stroke:rgb(0, 0, 0);stroke-linecap:square;stroke-width:2" />
	<line x1="80" y1="360" x2="640" y2="360" style="stroke:rgb(0, 0, 0);stroke-linecap:square;stroke-width:2" />
	<line x1="430" y1="210" x2="600" y2="210" style="stroke:rgb(0, 0, 0);stroke-linecap:square;stroke-width:2" />
	<line x1="180" y1="100" x2="180" y2="110" style="stroke:rgb(0, 0, 0);stroke-linecap:square;stroke-width:2" />
	<line x1="180" y1="100" x2="310" y2="100" style="stroke:rgb(0, 0, 0);stroke-linecap:square;stroke-width:2" />
	<line x1="180" y1="110" x2="180" y2="160" style="stroke:rgb(0, 0, 0);stroke-linecap:square;stroke-width:2" />
	<line x1="180" y1="160" x2="250" y2="160" style="stroke:rgb(0, 0, 0);stroke-linecap:square;stroke-width:2" />
	<line x1="180" y1="210" x2="180" y2="230" style="stroke:rgb(0, 0, 0);stroke-linecap:square;stroke-width:2" />
	<line x1="200" y1="260" x2="250" y2="260" style="stroke:rgb(0, 0, 0);stroke-linecap:square;stroke-width:2" />
	<line x1="150" y1="260" x2="160" y2="260" style="stroke:rgb(0, 0, 0);stroke-linecap:square;stroke-width:2" />
	<line x1="200" y1="260" x2="200" y2="260" style="stroke:rgb(0, 0, 0);stroke-linecap:square;stroke-width:2" />
	<path d="M 160,260 L 162,260 L 165,267 L 171,253 L 177,267 L 183,253 L 189,267 L 195,253 L 198,260 L 200,260" style="fill-opacity:0;fill:rgb(0, 0, 0);stroke:rgb(0, 0, 0);stroke-linecap:square;stroke-width:2" />
	<text x="180" y="274" style="font-family:Arial;font-size:11px;text-anchor:middle" dominant-baseline="hanging" transform="rotate(0, 180, 274)">10 kΩ</text>
	<path d="M 160,260 M 174,244 L 180,250 L 186,244 M 180,249 L 180,231" style="fill-opacity:0;fill:rgb(0, 0, 0);stroke:rgb(0, 0, 0);stroke-linecap:square;stroke-width:2" />
	<line x1="180" y1="160" x2="180" y2="165" style="stroke:rgb(0, 0, 0);stroke-linecap:square;stroke-width:2" />
	<line x1="180" y1="205" x2="180" y2="210" style="stroke:rgb(0, 0, 0);stroke-linecap:square;stroke-width:2" />
	<path d="M 180,165 L 180,167 L 173,170 L 187,176 L 173,182 L 187,188 L 173,194 L 187,200 L 180,203 L 180,205" style="fill-opacity:0;fill:rgb(0, 0, 0);stroke:rgb(0, 0, 0);stroke-linecap:square;stroke-width:2" />
	<text x="166" y="185" style="font-family:Arial;font-size:11px;text-anchor:end" dominant-baseline="middle" transform="rotate(0, 166, 185)">1 kΩ</text>
	<line x1="310" y1="100" x2="310" y2="110" style="stroke:rgb(0, 0, 0);stroke-linecap:square;stroke-width:2" />
	<line x1="310" y1="100" x2="340" y2="100" style="stroke:rgb(0, 0, 0);stroke-linecap:square;stroke-width:2" />
	<line x1="370" y1="100" x2="370" y2="110" style="stroke:rgb(0, 0, 0);stroke-linecap:square;stroke-width:2" />
	<line x1="340" y1="100" x2="370" y2="100" style="stroke:rgb(0, 0, 0);stroke-linecap:square;stroke-width:2" />
	<line x1="340" y1="30" x2="340" y2="100" style="stroke:rgb(0, 0, 0);stroke-linecap:square;stroke-width:2" />
	<line x1="640" y1="30" x2="640" y2="180" style="stroke:rgb(0, 0, 0);stroke-linecap:square;stroke-width:2" />
	<line x1="20" y1="30" x2="640" y2="30" style="stroke:rgb(0, 0, 0);stroke-linecap:square;stroke-width:2" />
	<line x1="640" y1="180" x2="640" y2="197" style="stroke:rgb(0, 0, 0);stroke-linecap:square;stroke-width:2" />
	<line x1="640" y1="223" x2="640" y2="230" style="stroke:rgb(0, 0, 0);stroke-linecap:square;stroke-width:2" />
	<line x1="600" y1="210" x2="626" y2="210" style="stroke:rgb(0, 0, 0);stroke-linecap:square;stroke-width:2" />
	<line x1="625.5" y1="202" x2="625.5" y2="218" style="stroke:rgb(0, 0, 0);stroke-linecap:square;stroke-width:3" />
	<line x1="640" y1="197" x2="625.5" y2="206" style="stroke:rgb(0, 0, 0);stroke-linecap:square;stroke-width:2" />
	<line x1="625.5" y1="214" x2="640" y2="223" style="stroke:rgb(0, 0, 0);stroke-linecap:square;stroke-width:2" />
	<ellipse cx="630" cy="210" rx="16" ry="16" style="fill-opacity:0;fill:rgb(0, 0, 0);stroke:rgb(0, 0, 0);stroke-width:2" />
	<path d="M 632,217 L 636,215 L 637,222 L 631,218 L 633,217" style="fill-opacity:1;fill:rgb(0, 0, 0);stroke:rgb(0, 0, 0);stroke-linecap:square;stroke-width:2" />
	<line x1="370" y1="130" x2="370" y2="110" style="stroke:rgb(0, 0, 0);stroke-linecap:square;stroke-width:2" />
	<line x1="310" y1="130" x2="310" y2="110" style="stroke:rgb(0, 0, 0);stroke-linecap:square;stroke-width:2" />
	<line x1="250" y1="160" x2="270" y2="160" style="stroke:rgb(0, 0, 0);stroke-linecap:square;stroke-width:2" />
	<line x1="250" y1="210" x2="270" y2="210" style="stroke:rgb(0, 0, 0);stroke-linecap:square;stroke-width:2" />
	<line x1="250" y1="260" x2="270" y2="260" style="stroke:rgb(0, 0, 0);stroke-linecap:square;stroke-width:2" />
	<line x1="310" y1="290" x2="310" y2="310" style="stroke:rgb(0, 0, 0);stroke-linecap:square;stroke-width:2" />
	<line x1="370" y1="290" x2="370" y2="310" style="stroke:rgb(0, 0, 0);stroke-linecap:square;stroke-width:2" />
	<line x1="410" y1="210" x2="430" y2="210" style="stroke:rgb(0, 0, 0);stroke-linecap:square;stroke-width:2" />
	<rect x="270" y="130" width="140" height="160" style="fill-opacity:0;fill:rgb(0, 0, 0);stroke:rgb(0, 0, 0);stroke-width:2" />
	<text x="370" y="135" style="font-family:Arial;font-size:11px;text-anchor:middle" dominant-baseline="hanging" transform="rotate(0, 370, 135)">Reset</text>
	<text x="310" y="135" style="font-family:Arial;font-size:11px;text-anchor:middle" dominant-baseline="hanging" transform="rotate(0, 310, 135)">Vcc</text>
	<text x="275" y="160" style="font-family:Arial;font-size:11px;text-anchor:start" dominant-baseline="middle" transform="rotate(0, 275, 160)">Discharge</text>
	<text x="275" y="210" style="font-family:Arial;font-size:11px;text-anchor:start" dominant-baseline="middle" transform="rotate(0, 275, 210)">Trigger</text>
	<text x="275" y="260" style="font-family:Arial;font-size:11px;text-anchor:start" dominant-baseline="middle" transform="rotate(0, 275, 260)">Threshold</text>
	<text x="310" y="285" style="font-family:Arial;font-size:11px;text-anchor:middle" dominant-baseline="baseline" transform="rotate(0, 310, 285)">Ground</text>
	<text x="370" y="285" style="font-family:Arial;font-size:11px;text-anchor:middle" dominant-baseline="baseline" transform="rotate(0, 370, 285)">Control</text>
	<text x="405" y="210" style="font-family:Arial;font-size:11px;text-anchor:end" dominant-baseline="middle" transform="rotate(0, 405, 210)">Output</text>
	<text x="340" y="185" style="font-family:Arial;font-size:11px;text-anchor:middle" dominant-baseline="middle" transform="rotate(0, 340, 185)">555</text>
	<text x="367" y="127" style="font-family:Arial;font-size:11px;text-anchor:end" dominant-baseline="baseline" transform="rotate(0, 367, 127)">4</text>
	<text x="307" y="127" style="font-family:Arial;font-size:11px;text-anchor:end" dominant-baseline="baseline" transform="rotate(0, 307, 127)">8</text>
	<text x="267" y="157" style="font-family:Arial;font-size:11px;text-anchor:end" dominant-baseline="baseline" transform="rotate(0, 267, 157)">7</text>
	<text x="267" y="207" style="font-family:Arial;font-size:11px;text-anchor:end" dominant-baseline="baseline" transform="rotate(0, 267, 207)">2</text>
	<text x="267" y="257" style="font-family:Arial;font-size:11px;text-anchor:end" dominant-baseline="baseline" transform="rotate(0, 267, 257)">6</text>
	<text x="307" y="293" style="font-family:Arial;font-size:11px;text-anchor:end" dominant-baseline="hanging" transform="rotate(0, 307, 293)">1</text>
	<text x="367" y="293" style="font-family:Arial;font-size:11px;text-anchor:end" dominant-baseline="hanging" transform="rotate(0, 367, 293)">5</text>
	<text x="413" y="207" style="font-family:Arial;font-size:11px;text-anchor:start" dominant-baseline="baseline" transform="rotate(0, 413, 207)">3</text>
	<text x="340" y="125" style="font-family:Arial;font-size:11px;text-anchor:middle" dominant-baseline="baseline" transform="rotate(0, 340, 125)">IC1</text>
	<ellipse cx="640" cy="330" rx="2" ry="2" style="fill-opacity:1;fill:rgb(0, 0, 0);stroke:rgb(0, 0, 0);stroke-width:2" />
	<ellipse cx="640" cy="280" rx="2" ry="2" style="fill-opacity:1;fill:rgb(0, 0, 0);stroke:rgb(0, 0, 0);stroke-width:2" />
	<ellipse cx="230" cy="360" rx="2" ry="2" style="fill-opacity:1;fill:rgb(0, 0, 0);stroke:rgb(0, 0, 0);stroke-width:2" />
	<ellipse cx="370" cy="360" rx="2" ry="2" style="fill-opacity:1;fill:rgb(0, 0, 0);stroke:rgb(0, 0, 0);stroke-width:2" />
	<ellipse cx="310" cy="360" rx="2" ry="2" style="fill-opacity:1;fill:rgb(0, 0, 0);stroke:rgb(0, 0, 0);stroke-width:2" />
	<ellipse cx="310" cy="100" rx="2" ry="2" style="fill-opacity:1;fill:rgb(0, 0, 0);stroke:rgb(0, 0, 0);stroke-width:2" />
	<ellipse cx="180" cy="160" rx="2" ry="2" style="fill-opacity:1;fill:rgb(0, 0, 0);stroke:rgb(0, 0, 0);stroke-width:2" />
	<ellipse cx="340" cy="100" rx="2" ry="2" style="fill-opacity:1;fill:rgb(0, 0, 0);stroke:rgb(0, 0, 0);stroke-width:2" />
	<ellipse cx="340" cy="30" rx="2" ry="2" style="fill-opacity:1;fill:rgb(0, 0, 0);stroke:rgb(0, 0, 0);stroke-width:2" />
</svg>